<?xml version="1.0" encoding="utf-8"?>
<!-- Generator: Adobe Illustrator 22.0.1, SVG Export Plug-In . SVG Version: 6.00 Build 0)  -->
<svg version="1.1" id="圖層_1" xmlns="http://www.w3.org/2000/svg" xmlns:xlink="http://www.w3.org/1999/xlink" x="0px" y="0px"
	 viewBox="0 0 50 50" style="enable-background:new 0 0 50 50;" xml:space="preserve">
<style type="text/css">
	.st0{fill:#A0887F;}
	.st1{fill:#725A52;}
	.st2{fill:#564D47;}
	.st3{clip-path:url(#SVGID_2_);}
	.st4{fill:#514740;}
	.st5{fill:#FFFFFF;}
	.st6{fill:#C13325;}
	.st7{opacity:0.6;fill:#E5E5E5;}
	.st8{clip-path:url(#SVGID_4_);fill:#D5D5D5;}
	.st9{fill:#666666;}
	.st10{fill:#333333;}
	.st11{fill:#7C6051;}
	.st12{fill:#775B4F;}
	.st13{fill:url(#SVGID_5_);}
	.st14{fill:url(#SVGID_6_);}
	.st15{clip-path:url(#SVGID_8_);}
	.st16{fill:#684E47;}
	.st17{fill:#2D2825;}
</style>
<g>
	<g>
		<path class="st0" d="M41.3,39H8.7C6,39,3.8,36.7,3.8,34V19.2c0-2.7,2.2-4.9,4.9-4.9h32.6c2.7,0,4.9,2.2,4.9,4.9V34
			C46.2,36.7,44,39,41.3,39z"/>
		<path class="st1" d="M40.8,35.1H9.2c-2.1,0-3.9-1.8-3.9-3.9V19.7c0-2.1,1.8-3.9,3.9-3.9h31.7c2.1,0,3.9,1.8,3.9,3.9v11.5
			C44.7,33.3,43,35.1,40.8,35.1z"/>
	</g>
	<g>
		<polygon class="st2" points="14.4,12.8 4.5,22.2 14.4,22.2 		"/>
		<polygon class="st2" points="35.6,12.8 45.5,22.2 35.6,22.2 		"/>
	</g>
	<g>
		<defs>
			<rect id="SVGID_1_" x="5.7" y="19.9" width="38.6" height="1.7"/>
		</defs>
		<clipPath id="SVGID_2_">
			<use xlink:href="#SVGID_1_"  style="overflow:visible;"/>
		</clipPath>
		<g class="st3">
			<polygon class="st4" points="14.4,22.2 14.4,12.8 4.5,22.2 			"/>
			<polygon class="st4" points="35.6,12.8 35.6,22.2 45.5,22.2 			"/>
		</g>
	</g>
	<path class="st5" d="M38.8,0.3l-1.1,1.1c-0.1,0.1-0.3,0.1-0.4,0l-1.1-1.1c-0.1-0.1-0.3-0.1-0.4,0l-1.1,1.1c-0.1,0.1-0.3,0.1-0.4,0
		L33,0.3c-0.1-0.1-0.3-0.1-0.4,0l-1.1,1.1c-0.1,0.1-0.3,0.1-0.4,0l-1.1-1.1c-0.1-0.1-0.3-0.1-0.4,0l-1.1,1.1c-0.1,0.1-0.3,0.1-0.4,0
		l-1.1-1.1c-0.1-0.1-0.3-0.1-0.4,0l-1.1,1.1c-0.1,0.1-0.3,0.1-0.4,0l-1.1-1.1c-0.1-0.1-0.3-0.1-0.4,0l-1.1,1.1
		c-0.1,0.1-0.3,0.1-0.4,0l-1.1-1.1c-0.1-0.1-0.3-0.1-0.4,0L19,1.4c-0.1,0.1-0.3,0.1-0.4,0l-1.1-1.1c-0.1-0.1-0.3-0.1-0.4,0l-1.1,1.1
		c-0.1,0.1-0.3,0.1-0.4,0l-1.1-1.1c-0.1-0.1-0.3-0.1-0.4,0l-1.1,1.1c-0.1,0.1-0.3,0.1-0.4,0l-1.1-1.1c-0.1-0.1-0.3-0.1-0.4,0
		L9.5,1.6C9.5,1.6,9.4,1.7,9.4,1.8V39c0,0.2,0.1,0.3,0.3,0.3h30.6c0.2,0,0.3-0.1,0.3-0.3V1.8c0-0.1,0-0.2-0.1-0.2l-1.3-1.2
		C39.1,0.2,38.9,0.2,38.8,0.3z"/>
	<polygon class="st6" points="25,46.7 29.9,49.8 29.9,39.8 20.1,39.8 20.1,49.8 	"/>
	<rect x="9.4" y="14.3" class="st7" width="31.2" height="12.4"/>
	<g>
		<defs>
			<rect id="SVGID_3_" x="9.4" y="15.9" width="31.2" height="9.8"/>
		</defs>
		<clipPath id="SVGID_4_">
			<use xlink:href="#SVGID_3_"  style="overflow:visible;"/>
		</clipPath>
		<path class="st8" d="M42.2,19.9h-4.7c-0.5,0-1,0.3-1.3,0.8l-1.4,2.6c-0.3,0.5-0.7,0.8-1.3,0.8H16.4c-0.5,0-1-0.3-1.3-0.8l-1.4-2.6
			c-0.3-0.5-0.7-0.8-1.3-0.8H7.8c-1.5,0-2.7,1.3-2.7,2.9v17.8c0,3.1,2.4,5.7,5.4,5.7h29.1c2.9,0,5.4-2.6,5.4-5.7V22.7
			C44.9,21.1,43.7,19.9,42.2,19.9z"/>
	</g>
	<g>
		<g>
			<g>
				<path class="st9" d="M14.7,18.8h-0.5v-1.9l-0.6,0.2v-0.4l1-0.4h0.1V18.8z"/>
				<path class="st9" d="M17.3,17.8c0,0.2,0,0.3-0.1,0.5c0,0.1-0.1,0.2-0.2,0.3c-0.1,0.1-0.2,0.2-0.3,0.2c-0.1,0-0.2,0.1-0.3,0.1
					s-0.2,0-0.3-0.1c-0.1,0-0.2-0.1-0.3-0.2c-0.1-0.1-0.1-0.2-0.2-0.3s-0.1-0.3-0.1-0.5v-0.4c0-0.2,0-0.3,0.1-0.5
					c0-0.1,0.1-0.2,0.2-0.3c0.1-0.1,0.2-0.1,0.3-0.2c0.1,0,0.2-0.1,0.3-0.1c0.1,0,0.2,0,0.3,0.1c0.1,0,0.2,0.1,0.3,0.2
					c0.1,0.1,0.1,0.2,0.2,0.3c0,0.1,0.1,0.3,0.1,0.5V17.8z M16.8,17.3c0-0.1,0-0.2,0-0.3c0-0.1,0-0.1-0.1-0.2c0,0-0.1-0.1-0.1-0.1
					c0,0-0.1,0-0.1,0s-0.1,0-0.1,0c0,0-0.1,0.1-0.1,0.1c0,0-0.1,0.1-0.1,0.2c0,0.1,0,0.2,0,0.3v0.6c0,0.1,0,0.2,0,0.3
					c0,0.1,0,0.1,0.1,0.2c0,0,0.1,0.1,0.1,0.1s0.1,0,0.1,0s0.1,0,0.1,0c0,0,0.1-0.1,0.1-0.1c0,0,0.1-0.1,0.1-0.2c0-0.1,0-0.2,0-0.3
					V17.3z"/>
				<path class="st9" d="M19.5,16.6l-1,2.2H18l1-2.1h-1.2v-0.4h1.8V16.6z"/>
				<path class="st9" d="M23.2,18.4H22v0.7h-0.4v-0.7H20V18h0.6V17h1v-0.4h-0.7c-0.1,0.2-0.3,0.5-0.5,0.6C20.3,17.2,20.1,17,20,17
					c0.3-0.3,0.6-0.7,0.7-1.2l0.4,0.1c0,0.1-0.1,0.2-0.1,0.3h2v0.4h-1V17h0.9v0.4H22V18h1.2V18.4z M21.6,18v-0.5H21V18H21.6z"/>
				<path class="st9" d="M25.4,17.8c0,0.2,0,0.3-0.1,0.5c0,0.1-0.1,0.2-0.2,0.3c-0.1,0.1-0.2,0.2-0.3,0.2c-0.1,0-0.2,0.1-0.3,0.1
					s-0.2,0-0.3-0.1c-0.1,0-0.2-0.1-0.3-0.2c-0.1-0.1-0.1-0.2-0.2-0.3c0-0.1-0.1-0.3-0.1-0.5v-0.4c0-0.2,0-0.3,0.1-0.5
					c0-0.1,0.1-0.2,0.2-0.3c0.1-0.1,0.2-0.1,0.3-0.2c0.1,0,0.2-0.1,0.3-0.1s0.2,0,0.3,0.1c0.1,0,0.2,0.1,0.3,0.2
					c0.1,0.1,0.1,0.2,0.2,0.3c0,0.1,0.1,0.3,0.1,0.5V17.8z M24.9,17.3c0-0.1,0-0.2,0-0.3c0-0.1,0-0.1-0.1-0.2c0,0-0.1-0.1-0.1-0.1
					c0,0-0.1,0-0.1,0s-0.1,0-0.1,0c0,0-0.1,0.1-0.1,0.1c0,0-0.1,0.1-0.1,0.2c0,0.1,0,0.2,0,0.3v0.6c0,0.1,0,0.2,0,0.3
					c0,0.1,0,0.1,0.1,0.2c0,0,0.1,0.1,0.1,0.1c0,0,0.1,0,0.1,0s0.1,0,0.1,0c0,0,0.1-0.1,0.1-0.1c0,0,0.1-0.1,0.1-0.2
					c0-0.1,0-0.2,0-0.3V17.3z"/>
				<path class="st9" d="M26,17.6l0.1-1.3h1.4v0.4h-1l-0.1,0.5c0,0,0,0,0.1,0c0,0,0.1,0,0.1,0c0,0,0.1,0,0.1,0c0,0,0.1,0,0.1,0
					c0.1,0,0.2,0,0.3,0.1c0.1,0,0.2,0.1,0.2,0.2c0.1,0.1,0.1,0.2,0.1,0.3c0,0.1,0.1,0.2,0.1,0.4c0,0.1,0,0.2-0.1,0.3
					s-0.1,0.2-0.2,0.3c-0.1,0.1-0.2,0.1-0.3,0.2c-0.1,0-0.2,0.1-0.4,0.1c-0.1,0-0.2,0-0.3,0c-0.1,0-0.2-0.1-0.3-0.1
					c-0.1-0.1-0.1-0.1-0.2-0.2c0-0.1-0.1-0.2-0.1-0.3h0.5c0,0.1,0,0.2,0.1,0.2c0.1,0.1,0.1,0.1,0.2,0.1c0.1,0,0.1,0,0.2,0
					c0,0,0.1-0.1,0.1-0.1c0,0,0-0.1,0.1-0.1c0-0.1,0-0.1,0-0.2c0-0.1,0-0.1,0-0.2c0-0.1,0-0.1-0.1-0.1c0,0-0.1-0.1-0.1-0.1
					c-0.1,0-0.1,0-0.2,0c0,0-0.1,0-0.1,0c0,0-0.1,0-0.1,0c0,0,0,0-0.1,0c0,0,0,0-0.1,0.1L26,17.6z"/>
				<path class="st9" d="M29.1,17.9h-1v-0.4h1V17.9z"/>
				<path class="st9" d="M31.3,17.8c0,0.2,0,0.3-0.1,0.5c0,0.1-0.1,0.2-0.2,0.3c-0.1,0.1-0.2,0.2-0.3,0.2c-0.1,0-0.2,0.1-0.3,0.1
					s-0.2,0-0.3-0.1c-0.1,0-0.2-0.1-0.3-0.2c-0.1-0.1-0.1-0.2-0.2-0.3c0-0.1-0.1-0.3-0.1-0.5v-0.4c0-0.2,0-0.3,0.1-0.5
					c0-0.1,0.1-0.2,0.2-0.3c0.1-0.1,0.2-0.1,0.3-0.2c0.1,0,0.2-0.1,0.3-0.1c0.1,0,0.2,0,0.3,0.1c0.1,0,0.2,0.1,0.3,0.2
					c0.1,0.1,0.1,0.2,0.2,0.3c0,0.1,0.1,0.3,0.1,0.5V17.8z M30.8,17.3c0-0.1,0-0.2,0-0.3c0-0.1,0-0.1-0.1-0.2c0,0-0.1-0.1-0.1-0.1
					c0,0-0.1,0-0.1,0s-0.1,0-0.1,0c0,0-0.1,0.1-0.1,0.1c0,0-0.1,0.1-0.1,0.2c0,0.1,0,0.2,0,0.3v0.6c0,0.1,0,0.2,0,0.3
					c0,0.1,0,0.1,0.1,0.2c0,0,0.1,0.1,0.1,0.1s0.1,0,0.1,0s0.1,0,0.1,0c0,0,0.1-0.1,0.1-0.1c0,0,0.1-0.1,0.1-0.2c0-0.1,0-0.2,0-0.3
					V17.3z"/>
				<path class="st9" d="M33.1,16.3v0.4h0c-0.1,0-0.2,0-0.3,0c-0.1,0-0.2,0.1-0.2,0.1c-0.1,0.1-0.1,0.1-0.2,0.2
					c0,0.1-0.1,0.2-0.1,0.3c0.1-0.1,0.1-0.1,0.2-0.1c0.1,0,0.2-0.1,0.3-0.1c0.1,0,0.2,0,0.3,0.1c0.1,0,0.2,0.1,0.2,0.2
					c0.1,0.1,0.1,0.2,0.1,0.3c0,0.1,0,0.2,0,0.3c0,0.1,0,0.2-0.1,0.3c0,0.1-0.1,0.2-0.2,0.3c-0.1,0.1-0.2,0.1-0.3,0.2
					c-0.1,0-0.2,0.1-0.3,0.1c-0.1,0-0.3,0-0.4-0.1c-0.1,0-0.2-0.1-0.3-0.2c-0.1-0.1-0.1-0.2-0.2-0.3c0-0.1-0.1-0.3-0.1-0.4v-0.2
					c0-0.2,0-0.4,0.1-0.6c0.1-0.2,0.1-0.3,0.2-0.4s0.2-0.2,0.4-0.3S32.9,16.3,33.1,16.3L33.1,16.3z M32.7,17.5c0,0-0.1,0-0.1,0
					c0,0-0.1,0-0.1,0c0,0-0.1,0-0.1,0.1c0,0,0,0.1-0.1,0.1v0.1c0,0.1,0,0.2,0,0.2c0,0.1,0,0.1,0.1,0.2c0,0,0.1,0.1,0.1,0.1
					c0,0,0.1,0,0.2,0c0.1,0,0.1,0,0.1,0c0,0,0.1-0.1,0.1-0.1c0,0,0.1-0.1,0.1-0.1c0-0.1,0-0.1,0-0.2c0-0.1,0-0.1,0-0.2
					c0-0.1,0-0.1-0.1-0.1c0,0-0.1-0.1-0.1-0.1C32.8,17.5,32.7,17.5,32.7,17.5z"/>
				<path class="st9" d="M36.7,18.6c0,0.3-0.1,0.4-0.2,0.4c-0.2,0.1-0.4,0.1-0.8,0.1c0-0.1-0.1-0.3-0.2-0.4c0.2,0,0.5,0,0.6,0
					c0.1,0,0.1,0,0.1-0.1v-0.5h-1.5c-0.1,0.4-0.3,0.8-0.6,1c-0.1-0.1-0.2-0.2-0.3-0.3c0.5-0.5,0.6-1.1,0.6-1.7V16h2.3V18.6z
					 M36.3,17.7v-0.4h-1.4c0,0.1,0,0.3,0,0.4H36.3z M34.9,16.4v0.4h1.4v-0.4H34.9z"/>
				<path class="st9" d="M15.2,21.9h-1v0.7h1.2V23h-1.7v-2.5h1.7v0.4h-1.2v0.6h1V21.9z"/>
				<path class="st9" d="M17.9,21.8c0,0.2,0,0.4-0.1,0.6c-0.1,0.2-0.2,0.3-0.3,0.4l0.4,0.3l-0.3,0.3L17,23c-0.1,0-0.1,0-0.2,0
					c-0.2,0-0.3,0-0.4-0.1c-0.1-0.1-0.2-0.1-0.3-0.2c-0.1-0.1-0.2-0.2-0.2-0.4c-0.1-0.2-0.1-0.3-0.1-0.5v-0.1c0-0.2,0-0.4,0.1-0.5
					c0.1-0.2,0.1-0.3,0.2-0.4c0.1-0.1,0.2-0.2,0.3-0.2c0.1-0.1,0.3-0.1,0.4-0.1c0.2,0,0.3,0,0.4,0.1c0.1,0.1,0.2,0.1,0.3,0.2
					c0.1,0.1,0.2,0.2,0.2,0.4c0.1,0.2,0.1,0.3,0.1,0.5V21.8z M17.4,21.7c0-0.3,0-0.5-0.1-0.6s-0.2-0.2-0.4-0.2
					c-0.2,0-0.3,0.1-0.4,0.2c-0.1,0.1-0.1,0.3-0.1,0.6v0.1c0,0.1,0,0.2,0,0.3c0,0.1,0.1,0.2,0.1,0.3c0,0.1,0.1,0.1,0.2,0.2
					c0.1,0,0.1,0.1,0.2,0.1c0.2,0,0.3-0.1,0.4-0.2c0.1-0.1,0.1-0.3,0.1-0.6V21.7z"/>
				<path class="st9" d="M19.4,22.1h-1v-0.4h1V22.1z"/>
				<path class="st9" d="M21.6,21.2c0,0.1,0,0.2-0.1,0.3c-0.1,0.1-0.1,0.2-0.2,0.2c0.1,0.1,0.2,0.1,0.3,0.2c0.1,0.1,0.1,0.2,0.1,0.4
					c0,0.1,0,0.2-0.1,0.3c0,0.1-0.1,0.2-0.2,0.2c-0.1,0.1-0.2,0.1-0.3,0.1c-0.1,0-0.2,0-0.3,0c-0.1,0-0.2,0-0.3,0
					c-0.1,0-0.2-0.1-0.3-0.1c-0.1-0.1-0.1-0.1-0.2-0.2c0-0.1-0.1-0.2-0.1-0.3c0-0.1,0-0.3,0.1-0.4c0.1-0.1,0.2-0.2,0.3-0.2
					c-0.1-0.1-0.2-0.1-0.2-0.2C20,21.4,20,21.3,20,21.2c0-0.1,0-0.2,0.1-0.3c0-0.1,0.1-0.2,0.2-0.2c0.1-0.1,0.2-0.1,0.2-0.1
					c0.1,0,0.2,0,0.3,0c0.1,0,0.2,0,0.3,0c0.1,0,0.2,0.1,0.2,0.1c0.1,0.1,0.1,0.1,0.2,0.2C21.6,21,21.6,21.1,21.6,21.2z M21.1,22.3
					c0-0.1,0-0.1,0-0.1s0-0.1-0.1-0.1c0,0-0.1-0.1-0.1-0.1c0,0-0.1,0-0.1,0s-0.1,0-0.1,0c0,0-0.1,0-0.1,0.1c0,0-0.1,0.1-0.1,0.1
					c0,0,0,0.1,0,0.1s0,0.1,0,0.1c0,0,0,0.1,0.1,0.1c0,0,0.1,0.1,0.1,0.1c0,0,0.1,0,0.1,0c0.1,0,0.2,0,0.3-0.1
					C21.1,22.5,21.1,22.4,21.1,22.3z M21.1,21.2c0-0.1,0-0.2-0.1-0.2c-0.1-0.1-0.1-0.1-0.2-0.1c-0.1,0-0.2,0-0.2,0.1
					c-0.1,0.1-0.1,0.1-0.1,0.2c0,0.1,0,0.2,0.1,0.2c0.1,0.1,0.1,0.1,0.2,0.1c0.1,0,0.2,0,0.2-0.1C21.1,21.4,21.1,21.3,21.1,21.2z"/>
				<path class="st9" d="M23.8,21.2c0,0.1,0,0.2-0.1,0.3c-0.1,0.1-0.1,0.2-0.2,0.2c0.1,0.1,0.2,0.1,0.3,0.2c0.1,0.1,0.1,0.2,0.1,0.4
					c0,0.1,0,0.2-0.1,0.3c0,0.1-0.1,0.2-0.2,0.2c-0.1,0.1-0.2,0.1-0.3,0.1c-0.1,0-0.2,0-0.3,0c-0.1,0-0.2,0-0.3,0
					c-0.1,0-0.2-0.1-0.3-0.1c-0.1-0.1-0.1-0.1-0.2-0.2c0-0.1-0.1-0.2-0.1-0.3c0-0.1,0-0.3,0.1-0.4c0.1-0.1,0.2-0.2,0.3-0.2
					c-0.1-0.1-0.2-0.1-0.2-0.2c-0.1-0.1-0.1-0.2-0.1-0.3c0-0.1,0-0.2,0.1-0.3c0-0.1,0.1-0.2,0.2-0.2c0.1-0.1,0.2-0.1,0.2-0.1
					c0.1,0,0.2,0,0.3,0c0.1,0,0.2,0,0.3,0c0.1,0,0.2,0.1,0.2,0.1c0.1,0.1,0.1,0.1,0.2,0.2C23.7,21,23.8,21.1,23.8,21.2z M23.3,22.3
					c0-0.1,0-0.1,0-0.1s0-0.1-0.1-0.1c0,0-0.1-0.1-0.1-0.1c0,0-0.1,0-0.1,0c-0.1,0-0.1,0-0.1,0c0,0-0.1,0-0.1,0.1
					c0,0-0.1,0.1-0.1,0.1c0,0,0,0.1,0,0.1s0,0.1,0,0.1c0,0,0,0.1,0.1,0.1c0,0,0.1,0.1,0.1,0.1c0,0,0.1,0,0.1,0c0.1,0,0.2,0,0.3-0.1
					C23.3,22.5,23.3,22.4,23.3,22.3z M23.3,21.2c0-0.1,0-0.2-0.1-0.2c-0.1-0.1-0.1-0.1-0.2-0.1c-0.1,0-0.2,0-0.2,0.1
					c-0.1,0.1-0.1,0.1-0.1,0.2c0,0.1,0,0.2,0.1,0.2c0.1,0.1,0.1,0.1,0.2,0.1c0.1,0,0.2,0,0.2-0.1C23.2,21.4,23.3,21.3,23.3,21.2z"/>
				<path class="st9" d="M25.9,21.2c0,0.1,0,0.2-0.1,0.3c-0.1,0.1-0.1,0.2-0.2,0.2c0.1,0.1,0.2,0.1,0.3,0.2c0.1,0.1,0.1,0.2,0.1,0.4
					c0,0.1,0,0.2-0.1,0.3c0,0.1-0.1,0.2-0.2,0.2c-0.1,0.1-0.2,0.1-0.3,0.1c-0.1,0-0.2,0-0.3,0c-0.1,0-0.2,0-0.3,0
					c-0.1,0-0.2-0.1-0.3-0.1c-0.1-0.1-0.1-0.1-0.2-0.2c0-0.1-0.1-0.2-0.1-0.3c0-0.1,0-0.3,0.1-0.4c0.1-0.1,0.2-0.2,0.3-0.2
					c-0.1-0.1-0.2-0.1-0.2-0.2c-0.1-0.1-0.1-0.2-0.1-0.3c0-0.1,0-0.2,0.1-0.3c0-0.1,0.1-0.2,0.2-0.2c0.1-0.1,0.2-0.1,0.2-0.1
					c0.1,0,0.2,0,0.3,0c0.1,0,0.2,0,0.3,0c0.1,0,0.2,0.1,0.2,0.1c0.1,0.1,0.1,0.1,0.2,0.2C25.9,21,25.9,21.1,25.9,21.2z M25.5,22.3
					c0-0.1,0-0.1,0-0.1c0,0,0-0.1-0.1-0.1c0,0-0.1-0.1-0.1-0.1c0,0-0.1,0-0.1,0c-0.1,0-0.1,0-0.1,0c0,0-0.1,0-0.1,0.1
					c0,0-0.1,0.1-0.1,0.1c0,0,0,0.1,0,0.1s0,0.1,0,0.1c0,0,0,0.1,0.1,0.1c0,0,0.1,0.1,0.1,0.1c0,0,0.1,0,0.1,0c0.1,0,0.2,0,0.3-0.1
					C25.5,22.5,25.5,22.4,25.5,22.3z M25.5,21.2c0-0.1,0-0.2-0.1-0.2c-0.1-0.1-0.1-0.1-0.2-0.1c-0.1,0-0.2,0-0.2,0.1
					c-0.1,0.1-0.1,0.1-0.1,0.2c0,0.1,0,0.2,0.1,0.2c0.1,0.1,0.1,0.1,0.2,0.1c0.1,0,0.2,0,0.2-0.1C25.4,21.4,25.5,21.3,25.5,21.2z"/>
				<path class="st9" d="M28.1,21.2c0,0.1,0,0.2-0.1,0.3c-0.1,0.1-0.1,0.2-0.2,0.2c0.1,0.1,0.2,0.1,0.3,0.2c0.1,0.1,0.1,0.2,0.1,0.4
					c0,0.1,0,0.2-0.1,0.3c0,0.1-0.1,0.2-0.2,0.2c-0.1,0.1-0.2,0.1-0.3,0.1c-0.1,0-0.2,0-0.3,0c-0.1,0-0.2,0-0.3,0
					c-0.1,0-0.2-0.1-0.3-0.1c-0.1-0.1-0.1-0.1-0.2-0.2c0-0.1-0.1-0.2-0.1-0.3c0-0.1,0-0.3,0.1-0.4c0.1-0.1,0.2-0.2,0.3-0.2
					c-0.1-0.1-0.2-0.1-0.2-0.2c-0.1-0.1-0.1-0.2-0.1-0.3c0-0.1,0-0.2,0.1-0.3c0-0.1,0.1-0.2,0.2-0.2c0.1-0.1,0.2-0.1,0.2-0.1
					c0.1,0,0.2,0,0.3,0c0.1,0,0.2,0,0.3,0c0.1,0,0.2,0.1,0.2,0.1c0.1,0.1,0.1,0.1,0.2,0.2C28.1,21,28.1,21.1,28.1,21.2z M27.7,22.3
					c0-0.1,0-0.1,0-0.1s0-0.1-0.1-0.1c0,0-0.1-0.1-0.1-0.1c0,0-0.1,0-0.1,0c-0.1,0-0.1,0-0.1,0c0,0-0.1,0-0.1,0.1
					c0,0-0.1,0.1-0.1,0.1c0,0,0,0.1,0,0.1s0,0.1,0,0.1c0,0,0,0.1,0.1,0.1c0,0,0.1,0.1,0.1,0.1c0,0,0.1,0,0.1,0c0.1,0,0.2,0,0.3-0.1
					C27.7,22.5,27.7,22.4,27.7,22.3z M27.6,21.2c0-0.1,0-0.2-0.1-0.2c-0.1-0.1-0.1-0.1-0.2-0.1c-0.1,0-0.2,0-0.2,0.1
					c-0.1,0.1-0.1,0.1-0.1,0.2c0,0.1,0,0.2,0.1,0.2c0.1,0.1,0.1,0.1,0.2,0.1c0.1,0,0.2,0,0.2-0.1C27.6,21.4,27.6,21.3,27.6,21.2z"/>
				<path class="st9" d="M30.3,21.2c0,0.1,0,0.2-0.1,0.3c-0.1,0.1-0.1,0.2-0.2,0.2c0.1,0.1,0.2,0.1,0.3,0.2c0.1,0.1,0.1,0.2,0.1,0.4
					c0,0.1,0,0.2-0.1,0.3c0,0.1-0.1,0.2-0.2,0.2C30.1,22.9,30,23,29.9,23c-0.1,0-0.2,0-0.3,0c-0.1,0-0.2,0-0.3,0
					c-0.1,0-0.2-0.1-0.3-0.1c-0.1-0.1-0.1-0.1-0.2-0.2c0-0.1-0.1-0.2-0.1-0.3c0-0.1,0-0.3,0.1-0.4c0.1-0.1,0.2-0.2,0.3-0.2
					c-0.1-0.1-0.2-0.1-0.2-0.2c-0.1-0.1-0.1-0.2-0.1-0.3c0-0.1,0-0.2,0.1-0.3c0-0.1,0.1-0.2,0.2-0.2c0.1-0.1,0.2-0.1,0.2-0.1
					c0.1,0,0.2,0,0.3,0c0.1,0,0.2,0,0.3,0c0.1,0,0.2,0.1,0.2,0.1c0.1,0.1,0.1,0.1,0.2,0.2C30.3,21,30.3,21.1,30.3,21.2z M29.9,22.3
					c0-0.1,0-0.1,0-0.1s0-0.1-0.1-0.1c0,0-0.1-0.1-0.1-0.1c0,0-0.1,0-0.1,0c-0.1,0-0.1,0-0.1,0c0,0-0.1,0-0.1,0.1
					c0,0-0.1,0.1-0.1,0.1c0,0,0,0.1,0,0.1s0,0.1,0,0.1c0,0,0,0.1,0.1,0.1c0,0,0.1,0.1,0.1,0.1c0,0,0.1,0,0.1,0c0.1,0,0.2,0,0.3-0.1
					C29.8,22.5,29.9,22.4,29.9,22.3z M29.8,21.2c0-0.1,0-0.2-0.1-0.2c-0.1-0.1-0.1-0.1-0.2-0.1c-0.1,0-0.2,0-0.2,0.1
					c-0.1,0.1-0.1,0.1-0.1,0.2c0,0.1,0,0.2,0.1,0.2c0.1,0.1,0.1,0.1,0.2,0.1c0.1,0,0.2,0,0.2-0.1C29.8,21.4,29.8,21.3,29.8,21.2z"/>
				<path class="st9" d="M32.5,21.2c0,0.1,0,0.2-0.1,0.3c-0.1,0.1-0.1,0.2-0.2,0.2c0.1,0.1,0.2,0.1,0.3,0.2c0.1,0.1,0.1,0.2,0.1,0.4
					c0,0.1,0,0.2-0.1,0.3c0,0.1-0.1,0.2-0.2,0.2c-0.1,0.1-0.2,0.1-0.3,0.1c-0.1,0-0.2,0-0.3,0c-0.1,0-0.2,0-0.3,0
					c-0.1,0-0.2-0.1-0.3-0.1c-0.1-0.1-0.1-0.1-0.2-0.2c0-0.1-0.1-0.2-0.1-0.3c0-0.1,0-0.3,0.1-0.4c0.1-0.1,0.2-0.2,0.3-0.2
					c-0.1-0.1-0.2-0.1-0.2-0.2c-0.1-0.1-0.1-0.2-0.1-0.3c0-0.1,0-0.2,0.1-0.3c0-0.1,0.1-0.2,0.2-0.2c0.1-0.1,0.2-0.1,0.2-0.1
					c0.1,0,0.2,0,0.3,0c0.1,0,0.2,0,0.3,0c0.1,0,0.2,0.1,0.2,0.1c0.1,0.1,0.1,0.1,0.2,0.2C32.5,21,32.5,21.1,32.5,21.2z M32.1,22.3
					c0-0.1,0-0.1,0-0.1s0-0.1-0.1-0.1c0,0-0.1-0.1-0.1-0.1c0,0-0.1,0-0.1,0c-0.1,0-0.1,0-0.1,0c0,0-0.1,0-0.1,0.1
					c0,0-0.1,0.1-0.1,0.1c0,0,0,0.1,0,0.1s0,0.1,0,0.1c0,0,0,0.1,0.1,0.1c0,0,0.1,0.1,0.1,0.1c0,0,0.1,0,0.1,0c0.1,0,0.2,0,0.3-0.1
					C32,22.5,32.1,22.4,32.1,22.3z M32,21.2c0-0.1,0-0.2-0.1-0.2c-0.1-0.1-0.1-0.1-0.2-0.1c-0.1,0-0.2,0-0.2,0.1
					c-0.1,0.1-0.1,0.1-0.1,0.2c0,0.1,0,0.2,0.1,0.2c0.1,0.1,0.1,0.1,0.2,0.1c0.1,0,0.2,0,0.2-0.1C32,21.4,32,21.3,32,21.2z"/>
				<path class="st9" d="M34.7,21.2c0,0.1,0,0.2-0.1,0.3c-0.1,0.1-0.1,0.2-0.2,0.2c0.1,0.1,0.2,0.1,0.3,0.2c0.1,0.1,0.1,0.2,0.1,0.4
					c0,0.1,0,0.2-0.1,0.3c0,0.1-0.1,0.2-0.2,0.2c-0.1,0.1-0.2,0.1-0.3,0.1c-0.1,0-0.2,0-0.3,0c-0.1,0-0.2,0-0.3,0
					c-0.1,0-0.2-0.1-0.3-0.1c-0.1-0.1-0.1-0.1-0.2-0.2c0-0.1-0.1-0.2-0.1-0.3c0-0.1,0-0.3,0.1-0.4c0.1-0.1,0.2-0.2,0.3-0.2
					c-0.1-0.1-0.2-0.1-0.2-0.2c-0.1-0.1-0.1-0.2-0.1-0.3c0-0.1,0-0.2,0.1-0.3c0-0.1,0.1-0.2,0.2-0.2c0.1-0.1,0.2-0.1,0.2-0.1
					c0.1,0,0.2,0,0.3,0s0.2,0,0.3,0c0.1,0,0.2,0.1,0.2,0.1c0.1,0.1,0.1,0.1,0.2,0.2C34.7,21,34.7,21.1,34.7,21.2z M34.3,22.3
					c0-0.1,0-0.1,0-0.1s0-0.1-0.1-0.1c0,0-0.1-0.1-0.1-0.1c0,0-0.1,0-0.1,0s-0.1,0-0.1,0c0,0-0.1,0-0.1,0.1c0,0-0.1,0.1-0.1,0.1
					c0,0,0,0.1,0,0.1s0,0.1,0,0.1c0,0,0,0.1,0.1,0.1c0,0,0.1,0.1,0.1,0.1c0,0,0.1,0,0.1,0c0.1,0,0.2,0,0.3-0.1
					C34.2,22.5,34.3,22.4,34.3,22.3z M34.2,21.2c0-0.1,0-0.2-0.1-0.2c-0.1-0.1-0.1-0.1-0.2-0.1c-0.1,0-0.2,0-0.2,0.1
					c-0.1,0.1-0.1,0.1-0.1,0.2c0,0.1,0,0.2,0.1,0.2c0.1,0.1,0.1,0.1,0.2,0.1c0.1,0,0.2,0,0.2-0.1C34.2,21.4,34.2,21.3,34.2,21.2z"/>
				<path class="st9" d="M36.9,21.2c0,0.1,0,0.2-0.1,0.3c-0.1,0.1-0.1,0.2-0.2,0.2c0.1,0.1,0.2,0.1,0.3,0.2c0.1,0.1,0.1,0.2,0.1,0.4
					c0,0.1,0,0.2-0.1,0.3c0,0.1-0.1,0.2-0.2,0.2c-0.1,0.1-0.2,0.1-0.3,0.1c-0.1,0-0.2,0-0.3,0c-0.1,0-0.2,0-0.3,0
					c-0.1,0-0.2-0.1-0.3-0.1c-0.1-0.1-0.1-0.1-0.2-0.2c0-0.1-0.1-0.2-0.1-0.3c0-0.1,0-0.3,0.1-0.4c0.1-0.1,0.2-0.2,0.3-0.2
					c-0.1-0.1-0.2-0.1-0.2-0.2c-0.1-0.1-0.1-0.2-0.1-0.3c0-0.1,0-0.2,0.1-0.3c0-0.1,0.1-0.2,0.2-0.2c0.1-0.1,0.2-0.1,0.2-0.1
					c0.1,0,0.2,0,0.3,0c0.1,0,0.2,0,0.3,0c0.1,0,0.2,0.1,0.2,0.1c0.1,0.1,0.1,0.1,0.2,0.2C36.9,21,36.9,21.1,36.9,21.2z M36.4,22.3
					c0-0.1,0-0.1,0-0.1s0-0.1-0.1-0.1c0,0-0.1-0.1-0.1-0.1c0,0-0.1,0-0.1,0s-0.1,0-0.1,0c0,0-0.1,0-0.1,0.1c0,0-0.1,0.1-0.1,0.1
					c0,0,0,0.1,0,0.1s0,0.1,0,0.1c0,0,0,0.1,0.1,0.1c0,0,0.1,0.1,0.1,0.1c0,0,0.1,0,0.1,0c0.1,0,0.2,0,0.3-0.1
					C36.4,22.5,36.4,22.4,36.4,22.3z M36.4,21.2c0-0.1,0-0.2-0.1-0.2c-0.1-0.1-0.1-0.1-0.2-0.1c-0.1,0-0.2,0-0.2,0.1
					c-0.1,0.1-0.1,0.1-0.1,0.2c0,0.1,0,0.2,0.1,0.2c0.1,0.1,0.1,0.1,0.2,0.1c0.1,0,0.2,0,0.2-0.1C36.4,21.4,36.4,21.3,36.4,21.2z"/>
			</g>
		</g>
		<g>
			<g>
				<path class="st10" d="M18.4,8.9c0-0.1,0.1-0.2,0.1-0.3c0-0.1,0-0.3,0-0.4V7.4h2c-0.3-0.2-0.6-0.5-0.9-0.8
					c-0.3-0.4-0.5-0.7-0.7-1.1v0.3c-0.5,0.7-1,1.2-1.7,1.7H18v1.4c0,0.2-0.1,0.4-0.3,0.6c-0.1,0.1-0.3,0.1-0.4,0.2
					c-0.2,0-0.4,0.1-0.6,0h-0.6l-0.1,0.6h1.7c0,0.6-0.1,1.2-0.1,1.9c0,0.2,0,0.4-0.1,0.5c0,0.1-0.1,0.2-0.2,0.3
					c-0.1,0.1-0.3,0.2-0.4,0.2c-0.2,0-0.4,0.1-0.7,0.1c-0.2,0-0.4,0-0.6-0.1c-0.2-0.1-0.4-0.2-0.6-0.3v-0.4l0.9,0
					c0.1,0,0.3,0,0.4-0.1c0-0.1,0.1-0.1,0.1-0.2c0-0.1,0-0.2,0-0.3c0-0.3,0-0.6,0.1-0.9h-1.7l0.2-2.2h1.6V8.2h-0.8
					c-0.5,0.2-0.9,0.4-1.4,0.5l-0.2-0.5c0.7-0.2,1.3-0.6,1.9-1C16,7.1,15.9,7,15.7,6.9c-0.2-0.1-0.4-0.3-0.6-0.5
					c-0.1,0-0.1-0.1-0.1-0.1l0.6-0.5h-0.7V5h3.8c0-0.1-0.1-0.1-0.1-0.2l1.1-0.2c0.1,0.3,0.2,0.5,0.4,0.8c0.4-0.3,0.9-0.5,1.3-0.8
					L22,5.2c-0.3,0.2-0.5,0.3-0.8,0.5C21,5.8,20.7,5.9,20.5,6c0.1,0.2,0.3,0.3,0.4,0.5c0.5-0.3,1-0.6,1.5-0.9l0.5,0.7
					C22.5,6.6,22,6.8,21.5,7c0.6,0.4,1.3,0.8,2,1l-0.2,0.5c-0.5-0.1-1-0.3-1.5-0.5v0.3c0,0.1,0,0.1,0,0.2c0,0,0,0.1,0.1,0.1
					c0.1,0.1,0.2,0.1,0.3,0.1h0.8l-0.2,0.8h-1.2c-0.1,0-0.3,0-0.4,0c-0.1,0-0.2-0.1-0.3-0.2c-0.1-0.1-0.1-0.1-0.1-0.2
					c0-0.1-0.1-0.3-0.1-0.4V8.3h-0.8v0.2c0,0.2,0,0.3-0.1,0.5c-0.1,0.1-0.2,0.3-0.3,0.4c-0.3,0.2-0.7,0.4-1,0.4L18,9.3
					C18.2,9.2,18.3,9.1,18.4,8.9z M15.8,5.8c0.3,0.3,0.7,0.6,1,0.9c0.3-0.3,0.5-0.5,0.8-0.9H15.8z M18.8,12.3
					c0.3-0.1,0.5-0.2,0.7-0.4c-0.4-0.2-0.9-0.5-1.3-0.7l0.5-0.7h-0.4V9.7h4.1v0.8c-0.3,0.5-0.7,1-1.2,1.3c0.5,0.3,1.1,0.6,1.7,0.9
					l-0.2,0.6c-0.4-0.1-0.7-0.2-1-0.3c-0.4-0.2-0.8-0.4-1.2-0.6c-0.8,0.4-1.5,0.7-2.4,0.8l-0.2-0.6C18.2,12.5,18.5,12.4,18.8,12.3z
					 M20.3,11.3c0.2-0.3,0.5-0.5,0.7-0.8h-2.2L20.3,11.3z"/>
				<path class="st10" d="M27.6,12.6c-0.4,0.2-0.9,0.3-1.4,0.4L26,12.5c0.4-0.1,0.7-0.3,1.1-0.5c0.5-0.3,1-0.6,1.4-0.9l0.6,0.8
					C28.6,12.1,28.1,12.4,27.6,12.6z M31,11.1v1.1c0,0.2,0,0.3-0.1,0.5c0,0.1-0.1,0.2-0.2,0.2C30.7,13,30.5,13,30.4,13
					c-0.2,0-0.4,0.1-0.7,0.1c-0.2,0-0.3,0-0.5-0.1c-0.2-0.1-0.4-0.2-0.6-0.3v-0.4l0.7,0c0.1,0,0.2,0,0.2,0c0.1,0,0.1,0,0.2-0.1
					c0-0.1,0.1-0.1,0.1-0.2c0-0.1,0-0.2,0-0.3v-0.8h-3.7v-0.8h8.4v0.8H31z M28.7,6.3V5.8h-2.4V5h8v0.8H32v0.5h2.2v1.4
					c0,0.2-0.1,0.4-0.3,0.5c-0.1,0.1-0.3,0.1-0.4,0.2c-0.2,0-0.4,0.1-0.6,0h-6.5V6.3H28.7z M26.9,9.8V9h6.9v0.8H26.9z M27.7,7.7h1
					V7.1h-1V7.7z M29.9,6.3h1V5.8h-1V6.3z M29.9,7.7h1V7.1h-1V7.7z M33.4,12.7c-0.4-0.2-0.9-0.4-1.3-0.6c-0.2-0.1-0.3-0.2-0.5-0.3
					l0.5-0.8c0.4,0.2,0.9,0.4,1.3,0.7c0.4,0.2,0.8,0.5,1.3,0.7L34.5,13C34.2,13,33.8,12.9,33.4,12.7z M32,7.1v0.7H33V7.1H32z"/>
			</g>
		</g>
	</g>
	<path class="st11" d="M43.4,20.9h-5c-0.6,0-1.1,0.3-1.3,0.8l-1.5,2.6c-0.3,0.5-0.8,0.8-1.3,0.8H15.8c-0.6,0-1.1-0.3-1.3-0.8
		L13,21.7c-0.3-0.5-0.8-0.8-1.3-0.8h-5c-1.6,0-2.9,1.3-2.9,2.9v15.2c0,3.1,2.6,5.7,5.7,5.7h31c3.1,0,5.7-2.6,5.7-5.7V23.8
		C46.2,22.2,44.9,20.9,43.4,20.9z"/>
	<path class="st12" d="M3.8,31.2v7.8c0,3.1,2.6,5.7,5.7,5.7h31c3.1,0,5.7-2.6,5.7-5.7v-7.8H3.8z"/>
	<g>
		<linearGradient id="SVGID_5_" gradientUnits="userSpaceOnUse" x1="30.7869" y1="46.2699" x2="28.4334" y2="32.9222">
			<stop  offset="0" style="stop-color:#775B4F;stop-opacity:0"/>
			<stop  offset="0.3624" style="stop-color:#6E574C;stop-opacity:0.3624"/>
			<stop  offset="0.9462" style="stop-color:#574A44;stop-opacity:0.9462"/>
			<stop  offset="1" style="stop-color:#544943"/>
		</linearGradient>
		<polygon class="st13" points="41.5,44.4 25.7,44.4 17.7,34.8 32.4,33.6 		"/>
		<linearGradient id="SVGID_6_" gradientUnits="userSpaceOnUse" x1="17.6041" y1="34.1574" x2="32.3959" y2="34.1574">
			<stop  offset="0" style="stop-color:#FFFFFF"/>
			<stop  offset="1" style="stop-color:#F5F5F5"/>
		</linearGradient>
		<path class="st14" d="M32.3,33.7C32.3,33.7,32.3,33.6,32.3,33.7c0-0.1,0-0.1,0-0.1c0,0,0,0,0,0c0,0,0,0,0-0.1c0,0,0,0,0,0
			c0,0,0,0,0-0.1c0,0,0,0,0,0c0,0,0,0,0-0.1c0,0,0,0,0,0c0,0,0,0,0-0.1c0,0,0,0,0,0c0,0,0,0,0,0c0,0-0.1-0.1-0.1-0.1c0,0,0,0,0,0
			c0,0,0,0-0.1,0c0,0,0,0,0,0c0,0,0,0-0.1,0c0,0,0,0-0.1,0c0,0,0,0-0.1,0c0,0,0,0-0.1,0c0,0,0,0-0.1,0c0,0,0,0-0.1,0
			c0,0-0.1,0-0.1,0c0,0,0,0-0.1,0c0,0-0.1,0-0.1,0c0,0,0,0,0,0c0,0-0.1,0-0.1,0H19c0,0-0.1,0-0.1,0c0,0,0,0,0,0c0,0-0.1,0-0.1,0
			c0,0,0,0-0.1,0c0,0-0.1,0-0.1,0c0,0,0,0-0.1,0c0,0,0,0-0.1,0c0,0,0,0-0.1,0c0,0,0,0-0.1,0c0,0,0,0-0.1,0c0,0,0,0-0.1,0
			c0,0,0,0,0,0c0,0,0,0-0.1,0c0,0,0,0,0,0c0,0-0.1,0.1-0.1,0.1c0,0,0,0,0,0c0,0,0,0,0,0c0,0,0,0,0,0.1c0,0,0,0,0,0c0,0,0,0,0,0.1
			c0,0,0,0,0,0c0,0,0,0,0,0.1c0,0,0,0,0,0c0,0,0,0,0,0.1c0,0,0,0,0,0c0,0,0,0,0,0.1c0,0,0,0,0,0c0,0.1,0,0.2,0,0.4v0.3
			c0,0.8,0.6,1.4,1.4,1.4H31c0.8,0,1.4-0.6,1.4-1.4V34C32.4,33.9,32.4,33.8,32.3,33.7z"/>
	</g>
	<g>
		<defs>
			<path id="SVGID_7_" d="M43.4,20.9h-5c-0.6,0-1.1,0.3-1.3,0.8l-1.5,2.6c-0.3,0.5-0.8,0.8-1.3,0.8H15.8c-0.6,0-1.1-0.3-1.3-0.8
				L13,21.7c-0.3-0.5-0.8-0.8-1.3-0.8h-5c-1.6,0-2.9,1.3-2.9,2.9v15.2c0,3.1,2.6,5.7,5.7,5.7h31c3.1,0,5.7-2.6,5.7-5.7V23.8
				C46.2,22.2,44.9,20.9,43.4,20.9z"/>
		</defs>
		<clipPath id="SVGID_8_">
			<use xlink:href="#SVGID_7_"  style="overflow:visible;"/>
		</clipPath>
		<g class="st15">
			<path class="st16" d="M38.6,43.4h-1.3v-1h1.3V43.4z M36,43.4h-1.3v-1H36V43.4z M33.4,43.4h-1.3v-1h1.3V43.4z M30.8,43.4h-1.3v-1
				h1.3V43.4z M28.2,43.4H27v-1h1.3V43.4z M25.7,43.4h-1.3v-1h1.3V43.4z M23.1,43.4h-1.3v-1h1.3V43.4z M20.5,43.4h-1.3v-1h1.3V43.4z
				 M17.9,43.4h-1.3v-1h1.3V43.4z M15.3,43.4H14v-1h1.3V43.4z M12.7,43.4h-1.3v-1h1.3V43.4z M10,43.3c-0.5-0.1-0.9-0.2-1.4-0.4L9,42
				c0.4,0.1,0.7,0.3,1.1,0.3L10,43.3z M40,43.3l-0.2-1c0.4-0.1,0.8-0.2,1.1-0.3l0.4,1C40.9,43.1,40.5,43.2,40,43.3z M7.4,42.2
				c-0.4-0.3-0.7-0.6-1-1l0.8-0.7c0.3,0.3,0.5,0.6,0.9,0.8L7.4,42.2z M42.6,42.2L42,41.4c0.3-0.2,0.6-0.5,0.9-0.8l0.8,0.7
				C43.3,41.6,43,42,42.6,42.2z M5.6,40.1c-0.2-0.4-0.4-0.9-0.5-1.3l1-0.2c0.1,0.4,0.2,0.7,0.4,1.1L5.6,40.1z M44.4,40.1l-0.9-0.5
				c0.2-0.3,0.3-0.7,0.4-1.1l1,0.2C44.8,39.2,44.7,39.7,44.4,40.1z M5.9,37.4h-1v-1.3h1V37.4z M45.1,37.4h-1v-1.3h1V37.4z M5.9,34.8
				h-1v-1.3h1V34.8z M45.1,34.8h-1v-1.3h1V34.8z M5.9,32.2h-1v-1.3h1V32.2z M45.1,32.2h-1v-1.3h1V32.2z M5.9,29.6h-1v-1.3h1V29.6z
				 M45.1,29.6h-1v-1.3h1V29.6z M5.9,27h-1v-1.3h1V27z M45.1,27h-1v-1.3h1V27z M5.9,24.4h-1v-1.3h1V24.4z M45.1,24.4h-1v-1.3h1V24.4
				z M5.9,21.8h-1v-1.3h1V21.8z M45.1,21.8h-1v-1.3h1V21.8z"/>
		</g>
	</g>
	<g>
		<g>
			<g>
				<g>
					<circle class="st5" cx="11.7" cy="29.2" r="2.4"/>
					<circle class="st17" cx="11.7" cy="29.2" r="1.7"/>
					<circle class="st5" cx="12.3" cy="28.6" r="0.4"/>
				</g>
			</g>
		</g>
		<g>
			<g>
				<g>
					<circle class="st5" cx="38.3" cy="29.2" r="2.4"/>
					<circle class="st17" cx="38.3" cy="29.2" r="1.7"/>
					<circle class="st5" cx="39" cy="28.6" r="0.4"/>
				</g>
			</g>
		</g>
	</g>
</g>
</svg>
