<?xml version="1.0" encoding="utf-8"?>
<!-- Generator: Adobe Illustrator 22.0.1, SVG Export Plug-In . SVG Version: 6.00 Build 0)  -->
<svg version="1.1" id="圖層_1" xmlns="http://www.w3.org/2000/svg" xmlns:xlink="http://www.w3.org/1999/xlink" x="0px" y="0px"
	 viewBox="0 0 50 50" style="enable-background:new 0 0 50 50;" xml:space="preserve">
<style type="text/css">
	.st0{fill:#C13325;}
	.st1{fill:#A0887F;}
	.st2{fill:#725A52;}
	.st3{fill:#564D47;}
	.st4{clip-path:url(#SVGID_2_);fill:#514740;}
	.st5{fill:url(#SVGID_3_);}
	.st6{opacity:0.6;fill:#E5E5E5;}
	.st7{clip-path:url(#SVGID_5_);fill:#D5D5D5;}
	.st8{fill:#7C6051;}
	.st9{fill:#775B4F;}
	.st10{fill:url(#SVGID_6_);}
	.st11{fill:url(#SVGID_7_);}
	.st12{clip-path:url(#SVGID_9_);fill:#684E47;}
	.st13{fill:#FFFFFF;}
	.st14{fill:#2D2825;}
	.st15{fill:#A38A77;}
	.st16{fill:#8C7260;}
	.st17{fill:#604C3F;}
</style>
<g>
	<title>logo</title>
	<g>
		<polygon class="st0" points="26.9,45.4 31.8,48.5 31.8,38.5 21.9,38.5 21.9,48.5 		"/>
		<path class="st1" d="M43.2,37.7H10.5c-2.7,0-4.9-2.2-4.9-4.9V17.8c0-2.7,2.2-4.9,4.9-4.9h32.7c2.7,0,4.9,2.2,4.9,4.9v14.9
			C48.1,35.4,45.9,37.7,43.2,37.7z"/>
		<path class="st2" d="M42.7,33.7H11c-2.1,0-3.9-1.8-3.9-3.9V18.3c0-2.1,1.8-3.9,3.9-3.9h31.8c2.1,0,3.9,1.8,3.9,3.9v11.5
			C46.6,32,44.9,33.7,42.7,33.7z"/>
		<polygon class="st3" points="16.3,11.5 6.3,20.9 16.3,20.9 		"/>
		<polygon class="st3" points="37.5,11.5 47.4,20.9 37.5,20.9 		"/>
		<g>
			<defs>
				<rect id="SVGID_1_" x="7.5" y="18.5" width="38.7" height="1.7"/>
			</defs>
			<clipPath id="SVGID_2_">
				<use xlink:href="#SVGID_1_"  style="overflow:visible;"/>
			</clipPath>
			<polygon class="st4" points="16.3,20.9 16.3,11.5 6.3,20.9 			"/>
			<polygon class="st4" points="37.5,11.5 37.5,20.9 47.4,20.9 			"/>
		</g>
		<linearGradient id="SVGID_3_" gradientUnits="userSpaceOnUse" x1="26.8546" y1="40.4342" x2="26.8546" y2="0.5">
			<stop  offset="0" style="stop-color:#FFFFFF"/>
			<stop  offset="1" style="stop-color:#F5F5F5"/>
		</linearGradient>
		<path class="st5" d="M40.9,40.4H12.8c-0.9,0-1.6-0.7-1.6-1.6V2.1c0-0.9,0.7-1.6,1.6-1.6h28.1c0.9,0,1.6,0.7,1.6,1.6v36.8
			C42.5,39.7,41.8,40.4,40.9,40.4z"/>
		<rect x="11.2" y="12.9" class="st6" width="31.3" height="12.5"/>
		<g>
			<defs>
				<rect id="SVGID_4_" x="11.2" y="14.5" width="31.3" height="9.9"/>
			</defs>
			<clipPath id="SVGID_5_">
				<use xlink:href="#SVGID_4_"  style="overflow:visible;"/>
			</clipPath>
			<path class="st7" d="M44.2,18.5h-4.7c-0.5,0-1,0.3-1.3,0.8l-1.4,2.6c-0.3,0.5-0.7,0.8-1.3,0.8H18.2c-0.5,0-1-0.3-1.3-0.8
				l-1.4-2.6c-0.3-0.5-0.7-0.8-1.3-0.8H9.6c-1.5,0-2.7,1.3-2.7,2.9v17.8c0,3.2,2.4,5.7,5.4,5.7h29.2c3,0,5.4-2.6,5.4-5.7V21.4
				C46.8,19.8,45.6,18.5,44.2,18.5z"/>
		</g>
		<path class="st8" d="M45.3,19.5h-5c-0.6,0-1.1,0.3-1.4,0.8l-1.5,2.6c-0.3,0.5-0.8,0.8-1.4,0.8H17.6c-0.6,0-1.1-0.3-1.4-0.8
			l-1.5-2.6c-0.3-0.5-0.8-0.8-1.4-0.8h-5c-1.6,0-2.9,1.3-2.9,2.9v15.2c0,3.2,2.6,5.7,5.7,5.7h31.1c3.2,0,5.7-2.6,5.7-5.7V22.4
			C48.1,20.8,46.9,19.5,45.3,19.5z"/>
		<path class="st9" d="M5.6,29.8v7.8c0,3.2,2.6,5.7,5.7,5.7h31.1c3.2,0,5.7-2.6,5.7-5.7v-7.8H5.6z"/>
		<linearGradient id="SVGID_6_" gradientUnits="userSpaceOnUse" x1="32.6585" y1="44.9858" x2="30.298" y2="31.599">
			<stop  offset="0" style="stop-color:#775B4F;stop-opacity:0"/>
			<stop  offset="0.3624" style="stop-color:#6E574C;stop-opacity:0.3624"/>
			<stop  offset="0.9462" style="stop-color:#574A44;stop-opacity:0.9462"/>
			<stop  offset="1" style="stop-color:#544943"/>
		</linearGradient>
		<polygon class="st10" points="43.4,43.1 27.5,43.1 19.6,33.5 34.3,32.3 		"/>
		<linearGradient id="SVGID_7_" gradientUnits="userSpaceOnUse" x1="19.437" y1="32.8379" x2="34.2722" y2="32.8379">
			<stop  offset="0" style="stop-color:#FFFFFF"/>
			<stop  offset="1" style="stop-color:#F5F5F5"/>
		</linearGradient>
		<path class="st11" d="M34.2,32.3C34.2,32.3,34.2,32.3,34.2,32.3c0-0.1,0-0.1,0-0.1c0,0,0,0,0,0c0,0,0,0,0-0.1c0,0,0,0,0,0
			c0,0,0,0,0-0.1c0,0,0,0,0,0c0,0,0,0,0-0.1c0,0,0,0,0,0c0,0,0,0,0-0.1c0,0,0,0,0,0c0,0,0,0,0,0c0,0-0.1-0.1-0.1-0.1c0,0,0,0,0,0
			c0,0,0,0-0.1,0c0,0,0,0,0,0c0,0,0,0-0.1,0c0,0,0,0-0.1,0c0,0,0,0-0.1,0c0,0,0,0-0.1,0c0,0,0,0-0.1,0c0,0,0,0-0.1,0
			c0,0-0.1,0-0.1,0c0,0,0,0-0.1,0c0,0-0.1,0-0.1,0c0,0,0,0,0,0c0,0-0.1,0-0.1,0h-12c0,0-0.1,0-0.1,0c0,0,0,0,0,0c0,0-0.1,0-0.1,0
			c0,0,0,0-0.1,0c0,0-0.1,0-0.1,0c0,0,0,0-0.1,0c0,0,0,0-0.1,0c0,0,0,0-0.1,0c0,0,0,0-0.1,0c0,0,0,0-0.1,0c0,0,0,0-0.1,0
			c0,0,0,0,0,0c0,0,0,0-0.1,0c0,0,0,0,0,0c0,0-0.1,0.1-0.1,0.1c0,0,0,0,0,0c0,0,0,0,0,0c0,0,0,0,0,0.1c0,0,0,0,0,0c0,0,0,0,0,0.1
			c0,0,0,0,0,0c0,0,0,0,0,0.1c0,0,0,0,0,0c0,0,0,0,0,0.1c0,0,0,0,0,0c0,0,0,0,0,0.1c0,0,0,0,0,0c0,0.1,0,0.2,0,0.4V33
			c0,0.8,0.6,1.4,1.4,1.4h12c0.8,0,1.4-0.6,1.4-1.4v-0.3C34.3,32.6,34.3,32.5,34.2,32.3z"/>
		<g>
			<defs>
				<path id="SVGID_8_" d="M45.3,19.5h-5c-0.6,0-1.1,0.3-1.4,0.8l-1.5,2.6c-0.3,0.5-0.8,0.8-1.4,0.8H17.6c-0.6,0-1.1-0.3-1.4-0.8
					l-1.5-2.6c-0.3-0.5-0.8-0.8-1.4-0.8h-5c-1.6,0-2.9,1.3-2.9,2.9v15.2c0,3.2,2.6,5.7,5.7,5.7h31.1c3.2,0,5.7-2.6,5.7-5.7V22.4
					C48.1,20.8,46.9,19.5,45.3,19.5z"/>
			</defs>
			<clipPath id="SVGID_9_">
				<use xlink:href="#SVGID_8_"  style="overflow:visible;"/>
			</clipPath>
			<path class="st12" d="M40.5,42.1h-1.3v-1h1.3V42.1z M37.9,42.1h-1.3v-1h1.3V42.1z M35.3,42.1H34v-1h1.3V42.1z M32.7,42.1h-1.3v-1
				h1.3V42.1z M30.1,42.1h-1.3v-1h1.3V42.1z M27.5,42.1h-1.3v-1h1.3V42.1z M24.9,42.1h-1.3v-1h1.3V42.1z M22.3,42.1H21v-1h1.3V42.1z
				 M19.7,42.1h-1.3v-1h1.3V42.1z M17.1,42.1h-1.3v-1h1.3V42.1z M14.5,42.1h-1.3v-1h1.3V42.1z M11.8,42c-0.5-0.1-0.9-0.2-1.4-0.4
				l0.4-1c0.4,0.1,0.7,0.3,1.1,0.3L11.8,42z M41.9,42l-0.2-1c0.4-0.1,0.8-0.2,1.1-0.3l0.4,1C42.8,41.8,42.4,41.9,41.9,42z M9.2,40.9
				c-0.4-0.3-0.7-0.6-1-1l0.8-0.7c0.3,0.3,0.5,0.6,0.9,0.8L9.2,40.9z M44.5,40.9l-0.6-0.8c0.3-0.2,0.6-0.5,0.9-0.8l0.8,0.7
				C45.2,40.3,44.9,40.7,44.5,40.9z M7.4,38.8c-0.2-0.4-0.4-0.9-0.5-1.3l1-0.2C8,37.6,8.1,38,8.3,38.3L7.4,38.8z M46.3,38.8
				l-0.9-0.5c0.2-0.3,0.3-0.7,0.4-1.1l1,0.2C46.7,37.9,46.6,38.4,46.3,38.8z M7.7,36.1h-1v-1.3h1V36.1z M47,36.1h-1v-1.3h1V36.1z
				 M7.7,33.5h-1v-1.3h1V33.5z M47,33.4h-1v-1.3h1V33.4z M7.7,30.9h-1v-1.3h1V30.9z M47,30.8h-1v-1.3h1V30.8z M7.7,28.3h-1V27h1
				V28.3z M47,28.2h-1v-1.3h1V28.2z M7.7,25.7h-1v-1.3h1V25.7z M47,25.6h-1v-1.3h1V25.6z M7.7,23.1h-1v-1.3h1V23.1z M47,23h-1v-1.3
				h1V23z M7.7,20.4h-1v-1.3h1V20.4z M47,20.4h-1v-1.3h1V20.4z"/>
		</g>
		<g>
			<g>
				<g>
					<circle class="st13" cx="13.5" cy="27.9" r="2.5"/>
					<circle class="st14" cx="13.5" cy="27.9" r="1.7"/>
					<circle class="st13" cx="14.1" cy="27.2" r="0.4"/>
				</g>
			</g>
		</g>
		<g>
			<g>
				<g>
					<circle class="st13" cx="40.2" cy="27.9" r="2.5"/>
					<circle class="st14" cx="40.2" cy="27.9" r="1.7"/>
					<circle class="st13" cx="40.8" cy="27.2" r="0.4"/>
				</g>
			</g>
		</g>
		<path class="st15" d="M31,5.2l1,1.1c0,0-1.4,1-2.9,1.5l-0.6-1C28.4,6.7,30,6,31,5.2z"/>
		<path class="st16" d="M32.6,6.9l-3.2,2l1,0.5c0,0,1.7-0.5,3.1-1.5L32.6,6.9z"/>
		<path class="st17" d="M26.4,5.6l1.8-0.3c0,0,1.2,3.9,6.1,5.5L34,11.7C34,11.7,28,10.9,26.4,5.6z"/>
		<g>
			<path class="st16" d="M24.9,6.8c0,0-0.9,2.3-5.5,4.3l0.3,0.9c0,0,4.9-1,7.3-4.8V5.9H25L24.9,6.8z"/>
			<rect x="20.4" y="5.9" class="st15" width="6.5" height="1.3"/>
			<path class="st17" d="M21.6,7c0,0-0.6,0.6-1.2,1.1c0,0,0.9,0.9,1.9,1.4c0.4-0.3,0.8-0.6,1.1-0.9C22.9,8.2,22,7.3,21.6,7z"/>
		</g>
		<rect x="20.6" y="12.2" class="st16" width="3.6" height="1.3"/>
		<path class="st16" d="M23.3,13.5h0.5c0.8,0,1.5-0.7,1.5-1.5v-2h-2V13.5z"/>
		<polygon class="st16" points="22.1,15.8 20.2,15.8 20.6,12.2 22.5,12.2 		"/>
		<polygon class="st15" points="22.2,14.5 20.3,14.5 20.2,15.8 22.1,15.8 25.1,15.8 25.1,14.5 		"/>
		<path class="st15" d="M25.1,14.5l-0.2,3.4c0,0,0,1.3-1.8,1.4s-2.4-0.6-2.4-0.6V18l1.5,0.1c0,0,0.8,0.1,0.8-0.8
			c0.1-0.9,0.2-2.7,0.2-2.7H25.1z"/>
		<path class="st16" d="M32,12.1c-0.2,0-0.3,0-0.4-0.1c-0.1-0.1-0.1-0.1-0.1-0.2c0-0.1,0-0.2,0-0.4V11v0v-1h-2h-0.2h-3.1V11
			c0,0.2,0,0.5,0,0.7c0,0.2-0.1,0.3-0.1,0.5c-0.2,0.3-0.4,0.5-0.7,0.7l0.4,0.7c0.6-0.1,1.2-0.3,1.7-0.7c0.2-0.2,0.4-0.4,0.5-0.6
			c0.1-0.2,0.2-0.5,0.2-0.8v-0.3h1.4v0.8c0,0.2,0,0.4,0.1,0.6c0.1,0.1,0.1,0.2,0.2,0.3c0.1,0.1,0.3,0.2,0.5,0.3
			c0.2,0.1,0.4,0.1,0.7,0.1h2l0.3-1.3H32z"/>
		<g>
			<path class="st16" d="M30.3,14.8c0,0-0.2,0.4-1.6,1.9l-0.8,0.6c0,0-0.5,0.4-2.7,1.2l0.3,0.9c0,0,1.9-0.3,4.3-1.5l0.7-0.6
				c0,0,1.3-1.1,2-2.3v-0.8h-2.3L30.3,14.8z"/>
			<path class="st15" d="M30.2,15h2.4c0,0,0,0,0,0v-1.3h-6.8V15h0.7h0.1H30.2z"/>
			<path class="st17" d="M33.5,18.5l-0.4,0.9c0,0-4-1.3-7.3-3.4l0.9-1.2C26.7,14.9,32.5,18.2,33.5,18.5z"/>
		</g>
		<rect x="21.8" y="10" class="st17" width="3.6" height="1.2"/>
	</g>
</g>
</svg>
